<?xml version="1.0" encoding="UTF-8" standalone="no"?>
<!-- Generator: Adobe Illustrator 13.0.0, SVG Export Plug-In  -->

<svg
   xmlns:dc="http://purl.org/dc/elements/1.1/"
   xmlns:cc="http://creativecommons.org/ns#"
   xmlns:rdf="http://www.w3.org/1999/02/22-rdf-syntax-ns#"
   xmlns:svg="http://www.w3.org/2000/svg"
   xmlns="http://www.w3.org/2000/svg"
   xmlns:sodipodi="http://sodipodi.sourceforge.net/DTD/sodipodi-0.dtd"
   xmlns:inkscape="http://www.inkscape.org/namespaces/inkscape"
   version="1.2"
   x="0px"
   y="0px"
   width="177px"
   height="202px"
   viewBox="-0.8 -0.5 177 202"
   xml:space="preserve"
   id="svg2"
   inkscape:version="0.48.4 r9939"
   sodipodi:docname="power.svg"><metadata
     id="metadata12"><rdf:RDF><cc:Work
         rdf:about=""><dc:format>image/svg+xml</dc:format><dc:type
           rdf:resource="http://purl.org/dc/dcmitype/StillImage" /></cc:Work></rdf:RDF></metadata><sodipodi:namedview
     pagecolor="#ffffff"
     bordercolor="#666666"
     borderopacity="1"
     objecttolerance="10"
     gridtolerance="10"
     guidetolerance="10"
     inkscape:pageopacity="0"
     inkscape:pageshadow="2"
     inkscape:window-width="1920"
     inkscape:window-height="1056"
     id="namedview10"
     showgrid="false"
     inkscape:zoom="3.304499"
     inkscape:cx="48.995276"
     inkscape:cy="92.957883"
     inkscape:window-x="0"
     inkscape:window-y="24"
     inkscape:window-maximized="1"
     inkscape:current-layer="svg2" /><defs
     id="defs4" /><g
     id="g3765"
     transform="matrix(0.95,0,0,0.95,4.3851562,5.0116666)"
     style="stroke:none;fill:#aa0000;stroke-width:3.15789474000000014;stroke-miterlimit:4;stroke-dasharray:none"><path
       inkscape:connector-curvature="0"
       id="path6"
       d="m 34.09375,49.15625 a 15.0015,15.0015 0 0 0 -11.5625,5.125 C 8.5592078,69.819125 0,90.503209 0,113 c 0,48.20474 39.378047,87.6875 87.6875,87.6875 48.20474,0 87.71875,-39.37805 87.71875,-87.6875 0,-22.496791 -8.59046,-43.180875 -22.5625,-58.71875 a 15.002929,15.002929 0 1 0 -22.3125,20.0625 c 9.22796,10.262125 14.875,23.753041 14.875,38.65625 0,32.09055 -25.72349,57.6875 -57.71875,57.6875 C 55.596953,170.6875 30,144.99526 30,113 30,98.096791 35.615792,84.605875 44.84375,74.34375 a 15.0015,15.0015 0 0 0 -10.75,-25.1875 z"
       style="font-size:medium;font-style:normal;font-variant:normal;font-weight:normal;font-stretch:normal;text-indent:0;text-align:start;text-decoration:none;line-height:normal;letter-spacing:normal;word-spacing:normal;text-transform:none;direction:ltr;block-progression:tb;writing-mode:lr-tb;text-anchor:start;baseline-shift:baseline;color:#000000;fill:#aa0000;fill-opacity:1;stroke:none;stroke-width:3.15789474000000014;stroke-miterlimit:4;stroke-opacity:1;stroke-dasharray:none;marker:none;visibility:visible;display:inline;overflow:visible;enable-background:accumulate;font-family:Sans;-inkscape-font-specification:Sans" /><path
       inkscape:connector-curvature="0"
       id="line8"
       d="M 87.5625,-0.21875 A 15.0015,15.0015 0 0 0 72.8125,15 l 0,98 a 15.0015,15.0015 0 1 0 30,0 l 0,-98 a 15.0015,15.0015 0 0 0 -15.25,-15.21875 z"
       style="font-size:medium;font-style:normal;font-variant:normal;font-weight:normal;font-stretch:normal;text-indent:0;text-align:start;text-decoration:none;line-height:normal;letter-spacing:normal;word-spacing:normal;text-transform:none;direction:ltr;block-progression:tb;writing-mode:lr-tb;text-anchor:start;baseline-shift:baseline;color:#000000;fill:#aa0000;fill-opacity:1;stroke:none;stroke-width:3.15789474000000014;stroke-miterlimit:4;stroke-opacity:1;stroke-dasharray:none;marker:none;visibility:visible;display:inline;overflow:visible;enable-background:accumulate;font-family:Sans;-inkscape-font-specification:Sans" /></g></svg>