<svg xmlns:dc="http://purl.org/dc/elements/1.1/" xmlns:cc="http://creativecommons.org/ns#" xmlns:rdf="http://www.w3.org/1999/02/22-rdf-syntax-ns#" xmlns:svg="http://www.w3.org/2000/svg" xmlns="http://www.w3.org/2000/svg" xmlns:sodipodi="http://sodipodi.sourceforge.net/DTD/sodipodi-0.dtd" xmlns:inkscape="http://www.inkscape.org/namespaces/inkscape" version="1.2" x="0px" y="0px" width="177px" height="202px" viewBox="-0.8 -0.5 177 202" xml:space="preserve" inkscape:version="0.48.4 r9939"><style>.style0{fill:	#aa0000;stroke-width:	3.15789474;}.style1{font-size:	medium;text-indent:	0;text-align:	start;text-decoration:	none;line-height:	normal;letter-spacing:	normal;word-spacing:	normal;text-transform:	none;direction:	ltr;block-progression:	tb;writing-mode:	lr-tb;text-anchor:	start;baseline-shift:	baseline;color:	#000000;fill:	#aa0000;stroke-width:	3.15789474;marker:	none;visibility:	visible;display:	inline;overflow:	visible;enable-background:	accumulate;font-family:	Sans;-inkscape-font-specification:	Sans;}</style><metadata><rdf:RDF><cc:Work rdf:about=""><dc:format>image/svg+xml</dc:format><dc:type rdf:resource="http://purl.org/dc/dcmitype/StillImage"/></cc:Work></rdf:RDF></metadata><defs/><g transform="matrix(0.95,0,0,0.95,4.3851562,5.0116666)" class="style0"><path inkscape:connector-curvature="0" d="m 34.09 49.16 a 15 15 0 0 0 -11.56 5.12 C 8.56 69.82 0 90.5 0 113 c 0 48.2 39.38 87.69 87.69 87.69 48.2 0 87.72 -39.38 87.72 -87.69 0 -22.5 -8.59 -43.18 -22.56 -58.72 a 15 15 0 1 0 -22.31 20.06 c 9.23 10.26 14.88 23.75 14.88 38.66 0 32.09 -25.72 57.69 -57.72 57.69 C 55.6 170.69 30 145 30 113 30 98.1 35.62 84.61 44.84 74.34 a 15 15 0 0 0 -10.75 -25.19 z" class="style1"/><path inkscape:connector-curvature="0" d="M 87.56 -0.22 A 15 15 0 0 0 72.81 15 l 0 98 a 15 15 0 1 0 30 0 l 0 -98 a 15 15 0 0 0 -15.25 -15.22 z" class="style1"/></g></svg>
